<svg width="78" height="79" viewBox="0 0 78 79" fill="none" xmlns="http://www.w3.org/2000/svg">
<g filter="url(#filter0_d)">
<path d="M52.1355 0.631592C65.565 0.631592 74 8.95286 74 22.3845V31.3215C74 32.7721 72.8135 33.9514 71.354 33.9514H71.3225V33.8888C69.8455 33.8888 68.6485 32.7026 68.645 31.2345V22.3845C68.645 11.7637 62.8 5.95414 52.146 5.95414H25.896C15.235 5.95414 9.355 11.7985 9.355 22.3845V48.4754C9.355 59.03 15.235 64.8744 25.8855 64.8744H52.1355C62.786 64.8744 68.6345 59.03 68.6345 48.4754C68.6345 47.0073 69.8315 45.8141 71.312 45.8141C72.7925 45.8141 73.9895 47.0073 73.9895 48.4754C74 61.8861 65.628 70.2074 52.146 70.2074H25.8855C12.372 70.2074 4 61.8861 4 48.4858V22.3949C4 8.95286 12.372 0.631592 25.8855 0.631592H52.1355ZM49.6036 25.3188C50.6291 24.2995 52.2916 24.2995 53.3171 25.3188C54.3426 26.3381 54.3426 27.9905 53.3171 29.0098L36.7026 45.5236C36.2091 46.0107 35.5406 46.2855 34.8476 46.2855C34.1476 46.2855 33.4826 46.0107 32.9891 45.5236L24.6836 37.265C23.6581 36.2457 23.6581 34.5933 24.6836 33.574C25.7091 32.5547 27.3716 32.5547 28.3971 33.574L34.8476 39.9889L49.6036 25.3188Z" fill="#8FAEE6"/>
</g>
<defs>
<filter id="filter0_d" x="0" y="0.631592" width="78" height="77.5758" filterUnits="userSpaceOnUse" color-interpolation-filters="sRGB">
<feFlood flood-opacity="0" result="BackgroundImageFix"/>
<feColorMatrix in="SourceAlpha" type="matrix" values="0 0 0 0 0 0 0 0 0 0 0 0 0 0 0 0 0 0 127 0"/>
<feOffset dy="4"/>
<feGaussianBlur stdDeviation="2"/>
<feColorMatrix type="matrix" values="0 0 0 0 0 0 0 0 0 0 0 0 0 0 0 0 0 0 0.25 0"/>
<feBlend mode="normal" in2="BackgroundImageFix" result="effect1_dropShadow"/>
<feBlend mode="normal" in="SourceGraphic" in2="effect1_dropShadow" result="shape"/>
</filter>
</defs>
</svg>
