<svg width="60" height="71" viewBox="0 0 60 71" fill="none" xmlns="http://www.w3.org/2000/svg">
<path d="M27.8281 0.975586C29.23 0.50944 30.7736 0.50944 32.1719 0.975586L55.6162 8.86181C58.2385 9.7454 60 12.1248 60 14.7895V37.8916C60 44.8942 57.3596 51.6742 52.569 56.9653C50.3753 59.39 47.5605 61.4737 43.9649 63.3383L31.293 69.8957C30.8971 70.0974 30.4613 70.2018 30.0218 70.2018C29.586 70.2018 29.1501 70.0974 28.7542 69.8957L16.0569 63.3348C12.454 61.4668 9.63559 59.383 7.44552 56.9688C2.6477 51.6707 0 44.8873 0 37.8777C0 36.4653 1.19855 35.3173 2.67312 35.3173C4.1477 35.3173 5.34625 36.4653 5.34625 37.8777C5.34625 43.6593 7.52542 49.2461 11.4806 53.6153C13.2421 55.5599 15.5702 57.2645 18.5956 58.8299L30.0218 64.7333L41.4225 58.8334C44.4407 57.2714 46.7688 55.5669 48.5339 53.6153C52.4818 49.2496 54.6574 43.6697 54.6574 37.8916V14.7895C54.6574 14.2955 54.3305 13.8572 53.8475 13.6937L30.4031 5.80751C30.1453 5.72054 29.8584 5.72054 29.5969 5.80751L6.15617 13.6937C5.67312 13.8572 5.34625 14.2955 5.34625 14.7895V21.3991C5.34625 22.8149 4.1477 23.9629 2.67312 23.9629C1.19855 23.9629 0 22.8149 0 21.3991V14.7895C0 12.1248 1.76513 9.7454 4.38741 8.86181L27.8281 0.975586ZM39.4736 25.8111C40.516 24.8127 42.2085 24.8127 43.2508 25.8111C44.2932 26.8095 44.2932 28.4306 43.2508 29.4289L29.3695 42.7245C28.8683 43.2046 28.1891 43.4759 27.4809 43.4759C26.769 43.4759 26.0935 43.2046 25.5923 42.7245L18.8513 36.2681C17.809 35.2662 17.809 33.6521 18.8513 32.6502C19.8973 31.6484 21.5862 31.6484 22.6286 32.6502L27.4809 37.2943L39.4736 25.8111Z" fill="#8FAEE6"/>
</svg>
