<svg width="60" height="71" viewBox="0 0 60 71" fill="none" xmlns="http://www.w3.org/2000/svg">
<path d="M38.6101 0.631592C38.684 0.631592 38.7438 0.666614 38.8142 0.673619H39.5355C40.2533 0.673619 40.9395 0.964306 41.4391 1.48264L59.2646 19.9605C59.7361 20.4509 60 21.1023 60 21.7817V54.3562C60 63.0943 52.931 70.2074 44.2365 70.2074H16.1295C6.93174 70.2074 0 63.392 0 54.3562V45.5795C0 44.1296 1.18227 42.9528 2.63899 42.9528C4.09571 42.9528 5.27797 44.1296 5.27797 45.5795V54.3562C5.27797 60.4956 9.84166 64.954 16.1295 64.954H44.2365C50.0211 64.954 54.722 60.198 54.722 54.3562V22.8359L41.2491 8.8724V13.4533C41.2491 16.9696 44.1239 19.8345 47.6566 19.8415C49.1133 19.845 50.292 21.0217 50.2885 22.4752C50.285 23.9216 49.1063 25.0948 47.6495 25.0948C41.2104 25.0808 35.9711 19.859 35.9711 13.4533V5.927H16.1295C10.2463 5.927 5.27797 10.7041 5.27797 16.3602V31.3008C5.27797 32.7508 4.09571 33.9275 2.63899 33.9275C1.18227 33.9275 0 32.7508 0 31.3008V16.3602C0 7.85674 7.38564 0.673619 16.1295 0.673619H38.4061C38.4799 0.666614 38.5398 0.631592 38.6101 0.631592ZM29.3561 27.649C30.8128 27.649 31.9951 28.8258 31.9951 30.2757V36.2331H37.9803C39.437 36.2331 40.6193 37.4098 40.6193 38.8598C40.6193 40.3097 39.437 41.4865 37.9803 41.4865H31.9951V47.4403C31.9951 48.8902 30.8128 50.067 29.3561 50.067C27.8994 50.067 26.7171 48.8902 26.7171 47.4403V41.4865H20.7354C19.2787 41.4865 18.0964 40.3097 18.0964 38.8598C18.0964 37.4098 19.2787 36.2331 20.7354 36.2331H26.7171V30.2757C26.7171 28.8258 27.8994 27.649 29.3561 27.649Z" fill="#8FAEE6"/>
</svg>
