<svg width="70" height="71" viewBox="0 0 70 71" fill="none" xmlns="http://www.w3.org/2000/svg">
<path d="M64.9578 24.2532C66.3637 24.27 67.4943 25.405 67.4943 26.7994V49.3163C67.4943 62.2007 59.39 70.2074 46.3984 70.2074H36.0671C34.644 70.2074 33.4857 69.0724 33.4687 67.6612C33.4854 66.2449 34.639 65.1009 36.0671 65.0843H46.3984C56.637 65.0843 62.2976 59.5011 62.3904 49.3163V26.7994C62.3904 25.3931 63.5399 24.2532 64.9578 24.2532ZM43.8311 3.33143C45.254 3.34823 46.3984 4.49703 46.3984 5.9083C46.3984 6.58895 46.1238 7.24127 45.6356 7.71967C45.1474 8.19807 44.4864 8.4627 43.8001 8.4545H21.0649C10.8263 8.4545 5.16569 14.0684 5.16569 24.2532V49.3163C5.16569 59.5011 10.8263 65.0843 21.0649 65.0843C22.4929 65.1009 23.6465 66.2449 23.6632 67.6612C23.6463 69.0724 22.4879 70.2074 21.0649 70.2074C8.07333 70.2074 0 62.2007 0 49.3163V24.2532C0 11.3381 8.07333 3.33143 21.0649 3.33143H43.8311ZM47.742 26.6326C48.6453 26.021 49.8624 26.0386 50.7536 26.7185C51.7563 27.4834 52.0477 28.8586 51.4404 29.9591L41.5421 42.6287C41.1087 43.1592 40.4907 43.5095 39.8099 43.6104C39.1322 43.6787 38.4547 43.4804 37.923 43.0582L28.4268 35.665L19.8895 46.6781C19.4824 47.2274 18.8702 47.5918 18.19 47.6898C17.5097 47.7879 16.8183 47.6113 16.2704 47.1996C15.1523 46.3302 14.9456 44.7314 15.8064 43.6104L25.9213 30.542C26.3432 30.0002 26.9652 29.6471 27.65 29.5608C28.3348 29.4745 29.0261 29.6619 29.5713 30.0818L39.0675 37.475L47.4192 26.8914L47.742 26.6326ZM57.404 1.32722C60.8013 -0.0784255 64.7179 0.685616 67.3252 3.26262C69.9325 5.83962 70.7162 9.72127 69.3105 13.0952C67.9047 16.4692 64.5867 18.67 60.9057 18.67C55.8952 18.67 51.8286 14.6507 51.8115 9.68158L51.8322 9.04133C52.0629 5.64949 54.2067 2.65019 57.404 1.32722ZM60.9057 5.7856C58.7361 5.7856 56.9773 7.52989 56.9773 9.68158C56.9773 11.8333 58.7361 13.5776 60.9057 13.5776C63.0753 13.5776 64.8341 11.8333 64.8341 9.68158C64.8341 7.52989 63.0753 5.7856 60.9057 5.7856Z" fill="#8FAEE6"/>
</svg>
