<svg width="70" height="71" viewBox="0 0 70 71" fill="none" xmlns="http://www.w3.org/2000/svg">
<path d="M9.77989 50.0078C11.2289 50.0078 12.4049 51.177 12.4049 52.6177C12.4049 55.5165 14.7744 57.8724 17.6934 57.8724H21.2914C24.0949 57.8759 26.7339 58.9616 28.7184 60.9208L31.2419 63.4333C32.2639 64.446 33.5904 64.9889 34.9974 64.9889C36.4324 65.0445 37.7484 64.4425 38.7494 63.4368C39.7714 62.4207 41.4339 62.4102 42.4629 63.4264C43.4884 64.446 43.4919 66.099 42.4699 67.122C40.4154 69.1752 37.7064 70.2018 34.9974 70.2018C32.3094 70.2018 29.6179 69.1891 27.5669 67.1603L25.0119 64.62C24.0214 63.6421 22.6949 63.0958 21.2844 63.0923H17.6934C11.8834 63.0923 7.15489 58.3944 7.15489 52.6177C7.15489 51.177 8.33089 50.0078 9.77989 50.0078ZM52.3031 7.72495C58.1131 7.72495 62.8416 12.4228 62.8416 18.203V21.7804C62.8451 23.1758 63.3911 24.4947 64.3816 25.4865L66.8946 27.9851C68.8861 29.9512 69.9886 32.5786 69.9992 35.3799C70.0061 38.1813 68.9176 40.8156 66.9331 42.7991L64.3781 45.3395C63.4051 46.3138 62.8451 47.6606 62.8416 49.0421V52.616C62.8416 58.3927 58.1131 63.094 52.3031 63.094C50.8541 63.094 49.6781 61.9248 49.6781 60.4841C49.6781 59.0434 50.8541 57.8741 52.3031 57.8741C55.2221 57.8741 57.5916 55.5148 57.5916 52.616V49.0386C57.5951 46.2477 58.6836 43.6239 60.6611 41.6542L63.1811 39.1452C64.2066 38.1221 64.7526 36.7997 64.7491 35.3938C64.7456 33.9914 64.1891 32.6725 63.1881 31.6808L60.6646 29.1717C58.6836 27.1882 57.5951 24.5678 57.5916 21.7838V18.203C57.5916 15.3007 55.2221 12.9448 52.3031 12.9448C50.8541 12.9448 49.6781 11.7756 49.6781 10.3349C49.6781 8.8942 50.8541 7.72495 52.3031 7.72495ZM43.9934 41.341C45.6699 41.341 47.0314 42.6947 47.0314 44.3616C47.0314 46.0285 45.6699 47.3822 43.9934 47.3822C42.3134 47.3822 40.9554 46.0285 40.9554 44.3616C40.9554 42.6947 42.3134 41.341 43.9934 41.341ZM42.1381 24.6193C43.1636 23.5997 44.8226 23.5997 45.8481 24.6193C46.8736 25.6389 46.8736 27.2919 45.8481 28.3115L27.8616 46.1983C27.3471 46.7064 26.6751 46.9604 26.0031 46.9604C25.3311 46.9604 24.6591 46.7064 24.1481 46.1983C23.1226 45.1787 23.1226 43.5257 24.1481 42.5061L42.1381 24.6193ZM27.5319 3.6952C31.4869 -0.240598 37.8919 -0.414594 42.0219 3.30893C42.1619 3.41332 42.3019 3.51772 42.4419 3.65692C42.8969 4.14411 43.1769 4.77049 43.1769 5.46648C43.1769 6.92805 41.9869 8.07642 40.5519 8.07642C39.8519 8.07642 39.2219 7.79803 38.7669 7.38044C38.7319 7.34564 38.7319 7.34564 38.6969 7.31432C36.5969 5.32728 33.2719 5.36208 31.2419 7.38044L28.7219 9.88598C26.7269 11.8695 24.1019 12.9483 21.3019 12.9483H17.6969C14.7919 12.9483 12.4119 15.3147 12.4119 18.203V21.7873C12.4119 24.5747 11.3269 27.1847 9.33189 29.1648L6.81189 31.6738C4.74689 33.7583 4.74689 37.099 6.81189 39.1522C7.82689 40.1613 7.82689 41.7969 6.81189 42.8444C6.32189 43.3281 5.62189 43.6065 4.95689 43.6065C4.29189 43.6065 3.62689 43.3629 3.10189 42.8444C-1.02811 38.7728 -1.02811 32.1227 3.06689 28.0164L5.62189 25.476C6.60189 24.5017 7.16189 23.1793 7.16189 21.7873V18.203C7.16189 12.4263 11.8869 7.72843 17.6969 7.72843H21.3019C22.7019 7.72843 24.0319 7.17512 25.0119 6.19726L27.5319 3.6952ZM25.9719 23.4998C27.6484 23.4998 29.0099 24.8535 29.0099 26.5204C29.0099 28.1873 27.6484 29.5375 25.9719 29.5375C24.2954 29.5375 22.9339 28.1873 22.9339 26.5204C22.9339 24.8535 24.2954 23.4998 25.9719 23.4998Z" fill="#8FAEE6"/>
</svg>
