<svg width="70" height="71" viewBox="0 0 70 71" fill="none" xmlns="http://www.w3.org/2000/svg">
<path d="M50.2565 0.625977C62.0655 0.625977 70 8.86375 70 21.1265V29.3712C70 30.7106 68.9045 31.7994 67.557 31.7994C66.2095 31.7994 65.114 30.7106 65.114 29.3712V21.1265C65.114 11.619 59.283 5.48237 50.2565 5.48237H19.7435C10.717 5.48237 4.8825 11.619 4.8825 21.1265V49.7013C4.8825 59.2088 10.717 65.3454 19.7435 65.3454H50.253C59.2795 65.3454 65.114 59.2088 65.114 49.7013V45.9268C64.582 45.4885 64.0395 45.0188 63.49 44.5457C59.64 41.2374 55.6675 37.8212 51.324 38.8196C48.2895 39.5189 46.5955 42.0062 44.6355 44.8831C42.945 47.367 41.195 49.9343 38.3705 51.6737C34.153 54.2689 29.701 52.3347 26.446 50.9223L25.907 50.6892C21.854 48.929 19.131 49.2838 16.5165 51.9033C15.568 52.8531 14.021 52.867 13.0655 51.9173C12.11 50.9745 12.103 49.4334 13.0515 48.4837C17.115 44.4135 21.9555 43.6795 27.8565 46.2329L28.406 46.4764C31.64 47.8819 33.901 48.7203 35.8015 47.5444C37.737 46.3582 39.123 44.3196 40.593 42.1593C42.8085 38.9101 45.318 35.2191 50.218 34.0885C56.98 32.523 62.3595 37.1568 66.6855 40.8721C67.5045 41.5783 68.3025 42.2671 69.0795 42.8828C69.6605 43.3455 69.9965 44.0413 69.9965 44.7788L70 49.7013C70 61.964 62.062 70.2018 50.253 70.2018H19.7435C7.9345 70.2018 0 61.964 0 49.7013V21.1265C0 8.86375 7.9345 0.625977 19.7435 0.625977H50.2565ZM23.9876 15.3138C28.9261 15.3138 32.9406 19.3074 32.9406 24.2125C32.9406 29.1211 28.9261 33.1147 23.9876 33.1147C19.0491 33.1147 15.0346 29.1211 15.0346 24.2125C15.0346 19.3074 19.0491 15.3138 23.9876 15.3138ZM23.9876 20.1702C21.7441 20.1702 19.9171 21.9826 19.9171 24.2125C19.9171 26.4459 21.7441 28.2584 23.9876 28.2584C26.2346 28.2584 28.0581 26.4459 28.0581 24.2125C28.0581 21.9826 26.2346 20.1702 23.9876 20.1702Z" fill="#8FAEE6"/>
</svg>
